<svg width="32" height="33" viewBox="0 0 32 33" fill="none" xmlns="http://www.w3.org/2000/svg">
<rect y="0.5" width="32" height="32" rx="16" fill="#5D5FEF"/>
<path fill-rule="evenodd" clip-rule="evenodd" d="M15.9999 12.3333C14.8948 12.3333 13.835 12.7722 13.0536 13.5536C12.2722 14.335 11.8333 15.3948 11.8333 16.4999C11.8333 17.605 12.2722 18.6648 13.0536 19.4462C13.835 20.2276 14.8948 20.6666 15.9999 20.6666C17.105 20.6666 18.1648 20.2276 18.9462 19.4462C19.7276 18.6648 20.1666 17.605 20.1666 16.4999C20.1666 15.3948 19.7276 14.335 18.9462 13.5536C18.1648 12.7722 17.105 12.3333 15.9999 12.3333ZM13.4999 16.4999C13.4999 17.163 13.7633 17.7988 14.2322 18.2677C14.701 18.7365 15.3369 18.9999 15.9999 18.9999C16.663 18.9999 17.2988 18.7365 17.7677 18.2677C18.2365 17.7988 18.4999 17.163 18.4999 16.4999C18.4999 15.8369 18.2365 15.201 17.7677 14.7322C17.2988 14.2633 16.663 13.9999 15.9999 13.9999C15.3369 13.9999 14.701 14.2633 14.2322 14.7322C13.7633 15.201 13.4999 15.8369 13.4999 16.4999Z" fill="white"/>
<path d="M20.9998 10.6665C20.7788 10.6665 20.5669 10.7543 20.4106 10.9106C20.2543 11.0669 20.1665 11.2788 20.1665 11.4998C20.1665 11.7209 20.2543 11.9328 20.4106 12.0891C20.5669 12.2454 20.7788 12.3332 20.9998 12.3332C21.2209 12.3332 21.4328 12.2454 21.5891 12.0891C21.7454 11.9328 21.8332 11.7209 21.8332 11.4998C21.8332 11.2788 21.7454 11.0669 21.5891 10.9106C21.4328 10.7543 21.2209 10.6665 20.9998 10.6665Z" fill="white"/>
<path fill-rule="evenodd" clip-rule="evenodd" d="M10.1666 7.33325C9.28253 7.33325 8.43468 7.68444 7.80956 8.30956C7.18444 8.93468 6.83325 9.78253 6.83325 10.6666V22.3332C6.83325 23.2173 7.18444 24.0651 7.80956 24.6903C8.43468 25.3154 9.28253 25.6666 10.1666 25.6666H21.8332C22.7173 25.6666 23.5651 25.3154 24.1903 24.6903C24.8154 24.0651 25.1666 23.2173 25.1666 22.3332V10.6666C25.1666 9.78253 24.8154 8.93468 24.1903 8.30956C23.5651 7.68444 22.7173 7.33325 21.8332 7.33325H10.1666ZM21.8332 8.99992H10.1666C9.72456 8.99992 9.30063 9.17551 8.98807 9.48807C8.67551 9.80063 8.49992 10.2246 8.49992 10.6666V22.3332C8.49992 22.7753 8.67551 23.1992 8.98807 23.5118C9.30063 23.8243 9.72456 23.9999 10.1666 23.9999H21.8332C22.2753 23.9999 22.6992 23.8243 23.0118 23.5118C23.3243 23.1992 23.4999 22.7753 23.4999 22.3332V10.6666C23.4999 10.2246 23.3243 9.80063 23.0118 9.48807C22.6992 9.17551 22.2753 8.99992 21.8332 8.99992Z" fill="white"/>
</svg>
