<svg width="32" height="33" viewBox="0 0 32 33" fill="none" xmlns="http://www.w3.org/2000/svg">
<rect y="0.5" width="32" height="32" rx="16" fill="#5D5FEF"/>
<path d="M10.1524 12.4975C11.1594 12.4975 11.9758 11.6812 11.9758 10.6742C11.9758 9.66716 11.1594 8.85083 10.1524 8.85083C9.14544 8.85083 8.3291 9.66716 8.3291 10.6742C8.3291 11.6812 9.14544 12.4975 10.1524 12.4975Z" fill="white"/>
<path d="M13.6974 13.8791V23.995H16.8383V18.9925C16.8383 17.6725 17.0866 16.3942 18.7233 16.3942C20.3374 16.3942 20.3574 17.9033 20.3574 19.0758V23.9958H23.4999V18.4483C23.4999 15.7233 22.9133 13.6292 19.7283 13.6292C18.1991 13.6292 17.1741 14.4683 16.7549 15.2625H16.7124V13.8791H13.6974ZM8.5791 13.8791H11.7249V23.995H8.5791V13.8791Z" fill="white"/>
</svg>
